<?xml version="1.0" encoding="utf-8"?>
<!-- Generator: Adobe Illustrator 24.2.3, SVG Export Plug-In . SVG Version: 6.00 Build 0)  -->
<svg version="1.1" id="Layer_1" xmlns="http://www.w3.org/2000/svg" xmlns:xlink="http://www.w3.org/1999/xlink" x="0px" y="0px"
	 viewBox="0 0 389 389" style="enable-background:new 0 0 389 389;" xml:space="preserve">
<style type="text/css">
	.st0{fill:#FFFFFF;}
	.st1{fill:#0096D6;}
</style>
<rect class="st0" width="389" height="389"/>
<path class="st1" d="M194.5,281.9c-0.9,0-1.7,0-2.6,0l17.9-49.1h24.6c4.3,0,9-3.3,10.5-7.4l19.4-53.2c3.2-8.7-1.8-15.8-11.1-15.8
	H219l-28.6,78.6h0l-16.2,44.6c-38.5-9.1-67.1-43.7-67.1-85c0-40.1,27-73.9,63.8-84.2l-16.7,46h0l-27.8,76.4l18.5,0l23.7-64.9h13.9
	l-23.7,64.9l18.5,0l22-60.6c3.2-8.7-1.8-15.8-11.1-15.8h-15.6l17.9-49.1c1.3-0.1,2.6-0.1,3.9-0.1c48.3,0,87.4,39.1,87.4,87.4
	C281.9,242.8,242.8,281.9,194.5,281.9z M247.4,167.8h-13.9L214,221.2h13.9L247.4,167.8z"/>
</svg>
